<mxfile host="app.diagrams.net" modified="2024-04-30T09:32:43.824Z" agent="Mozilla/5.0 (Macintosh; Intel Mac OS X 10_15_7) AppleWebKit/537.36 (KHTML, like Gecko) Chrome/124.0.0.0 Safari/537.36" version="24.3.1" etag="cc2LEm0jtsCwyvvsq3aX" type="github">
  <diagram name="第 1 页" id="e-_YKzd_My1Urmhrpciw">
    <mxGraphModel>
      <root>
        <mxCell id="0" />
        <mxCell id="1" parent="0" />
      </root>
    </mxGraphModel>
  </diagram>
</mxfile>
